<svg xmlns="http://www.w3.org/2000/svg" viewBox="0 0 450.93 217.15"><defs><style>.cls-1{fill:#f78f26;}.cls-2{fill:#ea1d76;}.cls-3{fill:#57c1e8;}</style></defs><title>Asset 5</title><g id="Layer_2" data-name="Layer 2"><g id="Layer_1-2" data-name="Layer 1"><g id="_Group_" data-name="&lt;Group&gt;"><path id="_Compound_Path_" data-name="&lt;Compound Path&gt;" class="cls-1" d="M71.32,27.57,0,87.16v68.62l71.32,61.35H129V27.57Zm0,125.13L43,121.43,71.37,94.85Z"/><rect id="_Rectangle_" data-name="&lt;Rectangle&gt;" class="cls-2" x="78.63" y="93.49" width="189.46" height="57.72" transform="translate(295.71 -51.01) rotate(90)"/><g id="_Group_2" data-name="&lt;Group&gt;"><path id="_Compound_Path_2" data-name="&lt;Compound Path&gt;" class="cls-3" d="M450,7.7A12.6,12.6,0,0,0,443.23,1a12.44,12.44,0,0,0-9.64,0,12.61,12.61,0,0,0-6.73,6.73,12.42,12.42,0,0,0,0,9.64,12.61,12.61,0,0,0,6.73,6.73,12.44,12.44,0,0,0,9.64,0A12.6,12.6,0,0,0,450,17.34a12.47,12.47,0,0,0,0-9.64Zm-2.17,9a10.21,10.21,0,0,1-2.13,3.4,10,10,0,0,1-3.24,2.27,9.75,9.75,0,0,1-4,.81,10,10,0,0,1-4-.81,9.73,9.73,0,0,1-3.24-2.27,10.5,10.5,0,0,1-2.13-3.4,11.3,11.3,0,0,1-.76-4.16A11.3,11.3,0,0,1,429,8.36,10.5,10.5,0,0,1,431.18,5a9.73,9.73,0,0,1,3.24-2.27,10,10,0,0,1,4-.81,9.79,9.79,0,0,1,4,.81,9.94,9.94,0,0,1,3.23,2.25,10.32,10.32,0,0,1,2.13,3.4,11.43,11.43,0,0,1,.76,4.18A11.54,11.54,0,0,1,447.79,16.68Z"/><path id="_Compound_Path_3" data-name="&lt;Compound Path&gt;" class="cls-3" d="M443.23,12.21a4.17,4.17,0,0,0,1-2.92q0-4.12-5-4.13h-5.62V19.84H436V13.35h2l4.09,6.49h2.53l-4.16-6.49A3.52,3.52,0,0,0,443.23,12.21ZM436,11.48V7h2.84a4.21,4.21,0,0,1,2.17.5,1.76,1.76,0,0,1,.85,1.65,2,2,0,0,1-.75,1.82,4.35,4.35,0,0,1-2.27.47Z"/><path id="_Compound_Path_4" data-name="&lt;Compound Path&gt;" class="cls-3" d="M320.14,71.72l-46.51-44H215.92V217.15h57.72L320.14,169l46.51,48.1h57.72V27.69H366.65ZM273.64,151V94l27.92,26.2Zm93,0-27.92-30.81L366.65,94Z"/></g></g></g></g></svg>